PathFileType	4	(X/Y/Z)	C:\Users\Basilio\Documents\Thesis Gigler\squatting_fais\c3dfiles\076\SLS_front_pre1\markers_experimental.trc
DataRate	CameraRate	NumFrames	NumMarkers	Units	OrigDataRate	OrigDataStartFrame	OrigNumFrames
200.000000	200.000000	4	61	mm	200.000000	1161	1548
Frame#	Time	FHD			LBHD			RBHD			C7			T10			CLAV			LSHO			LUUPA			LMUPA			LDUPA			LLEP			LMEP			LRAD			LUL			LRFIN			RSHO			RUPA1			RMUPA			RDUPA			RLEP			RMEP			RRAD			RUL			RUFIN			LASI			RASI			USACR			LSACR			RSACR			LTHI1			LTHI2			LTHI3			LTHI4			LLFC			LMFC			LTIB1			LTIB2			LTIB3			LTIB4			LLMAL			LMMAL			LHEE			LMT1			LMT2			LMT5			RTHI			RTHI2			RTHI3			RTHI4			RLFC			RMFC			RTIB1			RTIB2			RTIB3			RTIB4			RLMAL			RMMAL			RHEE			RMT1			RMT2			RMT5			
		X1	Y1	Z1	X2	Y2	Z2	X3	Y3	Z3	X4	Y4	Z4	X5	Y5	Z5	X6	Y6	Z6	X7	Y7	Z7	X8	Y8	Z8	X9	Y9	Z9	X10	Y10	Z10	X11	Y11	Z11	X12	Y12	Z12	X13	Y13	Z13	X14	Y14	Z14	X15	Y15	Z15	X16	Y16	Z16	X17	Y17	Z17	X18	Y18	Z18	X19	Y19	Z19	X20	Y20	Z20	X21	Y21	Z21	X22	Y22	Z22	X23	Y23	Z23	X24	Y24	Z24	X25	Y25	Z25	X26	Y26	Z26	X27	Y27	Z27	X28	Y28	Z28	X29	Y29	Z29	X30	Y30	Z30	X31	Y31	Z31	X32	Y32	Z32	X33	Y33	Z33	X34	Y34	Z34	X35	Y35	Z35	X36	Y36	Z36	X37	Y37	Z37	X38	Y38	Z38	X39	Y39	Z39	X40	Y40	Z40	X41	Y41	Z41	X42	Y42	Z42	X43	Y43	Z43	X44	Y44	Z44	X45	Y45	Z45	X46	Y46	Z46	X47	Y47	Z47	X48	Y48	Z48	X49	Y49	Z49	X50	Y50	Z50	X51	Y51	Z51	X52	Y52	Z52	X53	Y53	Z53	X54	Y54	Z54	X55	Y55	Z55	X56	Y56	Z56	X57	Y57	Z57	X58	Y58	Z58	X59	Y59	Z59	X60	Y60	Z60	X61	Y61	Z61	

1162	5.805	-264.2004699707032	1659.651123046875	-1025.90966796875	-395.9263610839845	1577.78759765625	-1123.8662109375	-385.6593322753907	1585.06396484375	-972.5418090820315	-429.5921630859376	1455.451904296875	-1041.497802734375	-453.9899291992189	1141.391967773438	-1049.528686523438	-293.9279479980469	1386.205078125	-1041.745239257813	-367.6824035644532	1422.4580078125	-1199.494995117188	-249.7222442626954	1411.095092773438	-1314.367431640625	-212.5997619628907	1433.633911132813	-1290.625122070313	-189.4157104492188	1422.6337890625	-1346.050048828125	-141.8833312988282	1421.217529296875	-1375.066528320313	-103.1201248168946	1359.711669921875	-1333.907348632813	74.19760894775392	1540.555786132813	-1308.699340820313	73.12367248535158	1550.433837890625	-1372.80810546875	141.0451812744141	1592.821899414063	-1299.563354492188	-352.0714111328126	1388.924560546875	-873.0480957031252	-358.7346191406251	1190.781616210938	-793.3464355468752	-314.1090698242188	1171.69189453125	-803.2344360351565	-347.3255310058594	1121.502075195313	-791.9273681640627	-328.9510803222657	1061.269775390625	-791.941345214844	-355.6950683593751	1045.896728515625	-866.2562255859377	-225.4050750732422	840.1843261718752	-830.5922851562502	-254.7861022949219	839.0318603515627	-770.6169433593752	-191.8797302246094	768.269226074219	-810.9990844726565	-305.0481567382813	951.5559082031252	-1146.78369140625	-297.0291442871094	992.723571777344	-936.6624755859377	-463.0862426757814	1034.73388671875	-1037.661987304688	-471.345428466797	1002.657348632813	-1061.146362304688	-473.929901123047	1009.167114257813	-1004.564392089844	-384.6697998046876	788.9243164062502	-1187.05078125	-355.2980346679688	709.3910522460939	-1181.811889648438	-305.8218688964844	711.3254394531251	-1175.648803710938	-383.1019897460938	659.0948486328126	-1159.94775390625	-374.3713378906251	503.0313720703126	-1123.527465820313	-335.4214172363282	507.8413696289064	-1010.635314941406	-330.6930847167969	366.8176574707032	-1043.905395507813	-352.9624328613282	307.9341430664063	-1105.546020507813	-322.9628295898438	314.4980163574219	-1069.4765625	-332.6724243164063	240.5113983154297	-1030.3056640625	-382.9607543945313	107.2611694335938	-1070.232421875	-357.9481811523438	126.2187957763672	-992.092224121094	-442.3865051269532	96.47599792480472	-1021.938049316406	-241.1277618408204	51.42223739624025	-1004.31640625	-234.5979766845704	48.60471343994142	-1042.794555664063	-258.5470275878907	42.91539764404298	-1093.081176757813	-211.2608184814454	805.627868652344	-864.0639648437502	-145.8238067626953	805.5823974609377	-880.8883056640627	-131.9594116210938	833.9419555664065	-896.5812988281252	-99.54518890380862	738.3649902343751	-898.3598632812502	-55.35998153686525	700.0261840820314	-910.1582641601565	-56.28847122192384	708.5386352539064	-1027.691650390625	71.88491821289064	649.7027587890626	-945.141052246094	97.8997497558594	547.3897705078126	-918.0360107421877	125.9446411132813	581.7501831054689	-933.9846191406252	165.5924987792969	563.3823852539064	-971.924011230469	244.4604492187501	430.3912658691407	-943.716247558594	236.8132629394532	451.3690185546876	-1026.736328125	214.4442901611329	373.5551757812501	-980.419372558594	379.2769775390626	484.1972045898439	-1036.800903320313	384.0807189941407	500.3133544921876	-992.5977783203127	381.9036865234376	474.9915466308595	-935.6705322265627	
1163	5.81	-264.3363037109376	1659.503784179688	-1025.853759765625	-396.2878417968751	1577.651489257813	-1123.966186523438	-385.897186279297	1585.011962890625	-972.625183105469	-429.9143371582032	1455.387451171875	-1041.6630859375	-453.8833923339845	1141.18896484375	-1049.64990234375	-294.1801147460938	1386.116455078125	-1041.80419921875	-367.4138183593751	1422.269897460938	-1199.390747070313	-249.8515167236329	1410.765258789063	-1314.334106445313	-212.7892150878907	1433.455200195313	-1290.46826171875	-189.7671813964844	1422.364624023438	-1345.900024414063	-141.8175048828125	1420.815551757813	-1374.745483398438	-103.3323822021485	1359.387329101563	-1333.580810546875	74.11317443847658	1540.22998046875	-1308.405883789063	72.79586791992189	1550.073120117188	-1372.374633789063	140.8614349365235	1592.529174804688	-1299.314331054688	-352.6268005371094	1388.773193359375	-873.038757324219	-359.3550415039063	1190.534545898438	-793.4371337890627	-314.6966552734376	1171.50927734375	-803.0708007812502	-347.8262329101563	1121.243041992188	-791.8310546875002	-329.2627868652344	1061.107299804688	-791.761657714844	-355.7974243164063	1045.775756835938	-866.1436157226565	-225.2796325683594	840.209655761719	-830.201843261719	-254.8272094726563	839.080749511719	-770.2564697265627	-191.5926208496094	768.4088134765627	-810.2694091796877	-304.3398742675782	951.3297119140627	-1146.640991210938	-296.5477600097657	992.780944824219	-936.7359008789065	-462.8071289062501	1034.558471679688	-1037.922729492188	-471.0122680664064	1002.423461914063	-1061.313598632813	-473.7290039062501	1008.902954101563	-1004.756591796875	-384.0820922851564	788.9805908203127	-1187.076782226563	-355.1722106933594	709.3159179687501	-1181.514892578125	-305.6950073242188	711.1676025390626	-1175.040405273438	-383.3300170898438	659.1636962890626	-1159.8681640625	-375.8273010253907	503.007293701172	-1123.346557617188	-337.1603393554688	507.8218994140626	-1010.134704589844	-331.8110351562501	367.0699157714844	-1043.69775390625	-353.5783081054688	308.2350463867188	-1105.301513671875	-323.9335937500001	314.8681030273438	-1069.174560546875	-333.1709289550782	240.5479736328126	-1030.006103515625	-382.9833374023438	107.2507553100586	-1070.171875	-358.1584777832032	126.1039047241211	-991.9831542968752	-442.4029541015626	96.45361328125003	-1021.8564453125	-241.1068420410157	51.42022705078126	-1004.219055175781	-234.6713409423829	48.71938705444337	-1042.802978515625	-258.5578613281251	42.94670104980469	-1093.067016601563	-210.9564056396485	805.6262207031252	-864.0593261718752	-145.5456085205078	805.6002197265627	-880.9309692382815	-131.5827331542969	833.9686279296877	-896.490905761719	-99.1838302612305	738.3428344726564	-898.3985595703127	-55.06661987304689	699.9057617187501	-910.1556396484377	-55.9990577697754	708.4290771484376	-1027.625244140625	72.2628860473633	649.5354003906251	-945.0480957031252	98.24263763427737	547.3723754882814	-917.9975585937502	126.2591552734375	581.7147827148439	-933.9671630859377	165.9644470214844	563.3864135742189	-971.9148559570315	244.8355865478516	430.3228759765626	-943.6751098632815	237.1966705322266	451.3356323242189	-1026.378784179688	214.8699188232422	373.6517028808594	-980.3336181640627	379.4778747558594	484.2728881835939	-1036.75341796875	384.4185180664064	500.3122863769532	-992.4592285156252	382.2813415527344	474.9384155273439	-935.5876464843752	
1164	5.815	-264.5190429687501	1659.413452148438	-1025.857299804688	-396.4086303710939	1577.718872070313	-1124.026245117188	-386.2393798828126	1584.943115234375	-972.639343261719	-430.2376098632814	1455.302612304688	-1041.7041015625	-453.8519287109376	1140.984497070313	-1049.733520507813	-294.4692993164063	1386.061645507813	-1041.870361328125	-367.6692199707032	1422.048828125	-1199.524658203125	-250.0001068115235	1410.220947265625	-1314.24755859375	-212.7920379638672	1433.114013671875	-1290.381103515625	-189.9580230712891	1421.664184570313	-1345.913818359375	-143.0122680664063	1420.80126953125	-1375.170654296875	-103.5914154052735	1359.063598632813	-1333.416015625	73.99693298339845	1539.87744140625	-1308.152099609375	72.55553436279298	1549.6982421875	-1372.135131835938	140.7607116699219	1592.119873046875	-1299.093139648438	-353.1002197265626	1388.601928710938	-873.040466308594	-359.8897705078126	1190.36767578125	-793.3913574218752	-315.1695251464844	1171.218383789063	-803.0013427734377	-348.2503967285157	1121.05859375	-791.742126464844	-329.5830078125001	1060.941528320313	-791.6021728515627	-355.9861755371094	1045.581176757813	-866.0356445312502	-224.7917785644532	840.357849121094	-829.413024902344	-254.8284606933594	839.074890136719	-769.8311767578127	-191.285629272461	768.6009521484377	-809.4685668945315	-303.8384094238282	951.119567871094	-1146.622192382813	-296.3585205078126	992.7426757812502	-936.7277832031252	-462.4722595214845	1034.34375	-1038.172241210938	-470.6386108398439	1002.168212890625	-1061.522338867188	-473.4088134765626	1008.806579589844	-1005.004760742188	-384.3261718750001	789.192077636719	-1187.24462890625	-355.0632019042969	709.2341308593751	-1181.199829101563	-305.5014038085938	710.8371582031251	-1174.349487304688	-383.4377746582032	659.1594238281251	-1159.772705078125	-377.0243225097657	502.9273986816407	-1123.055297851563	-338.8430786132813	507.7337646484376	-1009.572631835938	-332.9766845703126	367.0921630859376	-1043.3271484375	-354.3895568847657	308.1501770019532	-1105.106567382813	-324.7590942382813	315.0013732910157	-1068.771484375	-333.8443603515626	240.598129272461	-1029.888793945313	-383.0372314453126	107.2329254150391	-1070.001831054688	-358.3710327148438	125.9519729614258	-991.8218994140627	-442.4264221191407	96.39129638671878	-1021.813598632813	-241.1313781738282	51.38088989257814	-1004.237731933594	-234.5609436035157	48.76765823364259	-1042.770385742188	-257.8158264160157	42.6893424987793	-1092.80712890625	-210.6160125732422	805.5493164062502	-864.125915527344	-145.204818725586	805.5183105468752	-880.9920043945315	-131.384262084961	833.8372802734377	-896.5645751953127	-98.88935089111331	738.3238525390626	-898.363952636719	-54.76967620849611	699.8144531250001	-910.1653442382815	-55.67475891113283	708.3758544921876	-1027.686157226563	72.66964721679689	649.4428100585939	-944.9863281250002	98.46193695068362	547.2478027343751	-917.989929199219	126.6166687011719	581.6484985351564	-933.9060058593752	166.2465057373047	563.3289184570314	-971.8437500000002	245.1498718261719	430.308807373047	-943.6912841796877	237.4619903564454	451.2362670898439	-1026.436767578125	215.1462554931641	373.6307678222657	-980.3585205078127	379.9380493164063	484.2755432128907	-1036.653930664063	384.475067138672	499.8033447265626	-992.2427368164065	382.2515869140626	474.4902648925782	-935.591003417969	
1165	5.82	-264.8194580078126	1659.427856445313	-1025.871215820313	-396.7054443359376	1577.779052734375	-1124.049560546875	-386.5914916992189	1584.903686523438	-972.7452392578127	-430.5027160644532	1455.217895507813	-1041.765014648438	-453.6890869140626	1140.82568359375	-1049.872924804688	-294.7226867675782	1386.014892578125	-1041.892578125	-367.7544250488282	1422.087036132813	-1199.608276367188	-250.1907501220704	1409.9931640625	-1314.286499023438	-212.9468688964844	1432.785400390625	-1290.257568359375	-190.1037902832032	1421.300048828125	-1345.882690429688	-143.1546020507813	1420.372924804688	-1375.113525390625	-103.8126449584961	1358.7021484375	-1333.201904296875	73.83896636962892	1539.540649414063	-1307.845092773438	72.56885528564455	1549.2373046875	-1371.86962890625	140.5763092041016	1591.728393554688	-1298.681640625	-353.5009765625001	1388.430786132813	-872.992126464844	-360.4310607910157	1190.133422851563	-793.4083251953127	-315.6747741699219	1171.087768554688	-802.9329833984377	-348.6906433105469	1120.818725585938	-791.6300048828127	-329.9484863281251	1060.829833984375	-791.4591064453127	-356.0897827148438	1045.254150390625	-865.892272949219	-224.5142822265626	840.3729248046877	-828.9451904296877	-254.8430938720704	839.0071411132815	-769.5036621093752	-190.8926696777344	768.8062744140627	-808.7027587890627	-303.2064514160157	950.9113769531252	-1146.525024414063	-296.1452331542969	992.6199340820315	-936.713562011719	-462.1578369140626	1034.107543945313	-1038.421875	-470.3304748535157	1001.887268066406	-1061.707763671875	-473.2086791992189	1008.633117675781	-1005.223266601563	-383.7369384765626	789.159362792969	-1187.270385742188	-355.0104064941407	709.1569824218751	-1180.925170898438	-305.3546447753907	710.5674438476564	-1173.822143554688	-383.7329406738282	659.1989135742189	-1159.666748046875	-378.2366638183594	502.908172607422	-1122.933349609375	-340.5822143554688	507.6266479492189	-1009.312438964844	-334.1917419433594	367.1690368652344	-1043.007080078125	-354.9807434082032	308.2733154296876	-1104.944946289063	-325.6711730957032	315.0875854492188	-1068.633056640625	-334.9752807617188	240.6244201660157	-1029.998657226563	-383.1044006347657	107.2277526855469	-1069.971801757813	-358.4823913574219	125.9242248535157	-991.7437133789065	-442.4314270019532	96.30771636962893	-1021.820434570313	-241.0784454345704	51.4371795654297	-1004.127746582031	-234.6791534423829	48.82406997680665	-1042.75927734375	-257.8887329101563	42.70996093750001	-1092.761352539063	-210.4705047607422	805.424743652344	-864.1685180664065	-144.9611358642578	805.404235839844	-880.9713134765627	-131.1111297607422	833.7691650390627	-896.5286865234377	-98.69254302978518	738.0499877929689	-898.4812011718752	-54.51003265380861	699.7336425781251	-910.1626586914065	-55.24604415893556	708.2291870117189	-1027.605224609375	72.9364700317383	649.3717041015626	-944.8630981445315	98.7878341674805	547.1870117187501	-917.9847412109377	126.9556045532227	581.6016235351564	-933.8859863281252	166.4584503173828	563.3225708007814	-971.8162841796877	245.4628601074219	430.2822875976564	-943.622253417969	237.8741302490235	451.212860107422	-1026.269653320313	215.5319213867188	373.6233215332032	-980.258483886719	379.9993286132813	484.4379882812501	-1036.686279296875	384.8231506347657	499.7392578125001	-992.1399536132815	382.3502807617188	474.0135498046876	-935.873718261719	
